<?xml version="1.0" encoding="UTF-8" standalone="no"?>
<!-- Created with Inkscape (http://www.inkscape.org/) -->

<svg
   width="1in"
   height="0.5in"
   viewBox="0 0 25.400051 12.700026"
   version="1.1"
   id="svg1"
   xml:space="preserve"
   inkscape:version="1.3.2 (091e20e, 2023-11-25, custom)"
   sodipodi:docname="logo.svg"
   xmlns:inkscape="http://www.inkscape.org/namespaces/inkscape"
   xmlns:sodipodi="http://sodipodi.sourceforge.net/DTD/sodipodi-0.dtd"
   xmlns="http://www.w3.org/2000/svg"
   xmlns:svg="http://www.w3.org/2000/svg"><sodipodi:namedview
     id="namedview1"
     pagecolor="#ffffff"
     bordercolor="#666666"
     borderopacity="1.0"
     inkscape:showpageshadow="2"
     inkscape:pageopacity="0.0"
     inkscape:pagecheckerboard="0"
     inkscape:deskcolor="#d1d1d1"
     inkscape:document-units="mm"
     inkscape:zoom="8.4057616"
     inkscape:cx="38.366541"
     inkscape:cy="30.098403"
     inkscape:window-width="1920"
     inkscape:window-height="1057"
     inkscape:window-x="1672"
     inkscape:window-y="-8"
     inkscape:window-maximized="1"
     inkscape:current-layer="layer1" /><defs
     id="defs1" /><g
     inkscape:label="Layer 1"
     inkscape:groupmode="layer"
     id="layer1"><path
       style="fill:#000000;stroke-width:0.305244"
       d="m 1.3591202,12.531047 c -0.41484807,-0.22813 -0.44069407,-0.33667 -0.43923807,-1.84456 0.0012,-1.2420702 0.01431,-1.3836502 0.10811497,-1.1683102 0.4668891,1.0717102 1.9833101,1.1669002 2.4730471,0.15523 0.0879,-0.18156 0.159811,-0.42378 0.159811,-0.53827 0,-0.11857 0.05711,-0.23005 0.132702,-0.25906 0.163712,-0.0628 0.136246,-0.0955 0.375424,0.44652 l 0.200011,0.45326 0.659484,0.21272 c 0.362719,0.1169902 0.795814,0.2345102 0.962435,0.2611602 0.284687,0.0455 0.321288,0.026 0.607168,-0.3228202 0.293853,-0.35861 0.315739,-0.36951 0.64199,-0.32006 0.185775,0.0282 0.397914,0.10338 0.47142,0.16716 0.122009,0.10587 0.103438,0.14618 -0.213277,0.4628902 -0.386309,0.38631 -0.487952,0.69147 -0.407975,1.22479 0.06256,0.41716 0.3447,0.7631 0.81279,0.99659 l 0.320912,0.16007 -3.351645,0.001 c -2.286931,5.3e-4 -3.402959,-0.0274 -3.513174,-0.0881 z m 7.430159,0.013 c 0.02744,-0.0444 0.08977,-0.0808 0.138477,-0.0808 0.155757,0 0.6248046,-0.40418 0.7499936,-0.64627 0.156478,-0.30259 0.157958,-1.05086 0.0025,-1.25641 -0.1946536,-0.25735 -0.144271,-0.30145 0.280102,-0.24515 0.4342792,0.0576 0.4540682,0.0455 0.3081132,-0.18819 -0.07376,-0.11811 -0.07376,-0.2264802 0,-0.4726702 0.05264,-0.17568 0.0957,-0.44744 0.0957,-0.60391 0,-0.26121 -0.02314,-0.28885 -0.282669,-0.33753 -0.2140708,-0.0402 -0.2826688,-0.0933 -0.2826688,-0.21889 0,-0.15898 0.4338958,-1.01955 0.7270918,-1.44207 0.231752,-0.33398 0.271317,-0.56068 0.125899,-0.72136 -0.103045,-0.11387 -0.11313,-0.1907 -0.04765,-0.36293 0.05009,-0.13176 0.0546,-0.2725 0.01132,-0.35454 -0.03945,-0.0748 -0.114619,-0.35411 -0.167039,-0.62062 -0.05242,-0.26652 -0.189111,-0.73898 -0.303755,-1.04991 -0.2148178,-0.58264 -0.6125178,-1.05669 -1.4667314,-1.74832 l -0.353601,-0.2863 0.101335,-0.31527 c 0.05573,-0.1734 0.155275,-0.3771 0.221205,-0.45266 0.106038,-0.12152 0.105675,-0.17904998 -0.0031,-0.49837998 -0.06765,-0.19856 -0.101961,-0.3820497 -0.07624,-0.4077697 0.02573,-0.0257 0.594943,-0.0466 1.2649326,-0.0465 1.0750278,2.7e-4 1.2492488,0.0193 1.4826598,0.16156 0.145471,0.0887 0.300654,0.2563797 0.344848,0.3726097 0.05128,0.13488 0.07247,2.24137998 0.05856,5.82152998 l -0.02179,5.6101702 -0.263752,0.23564 -0.263753,0.23563 H 9.9543368 c -0.7893896,0 -1.1974486,-0.0283 -1.1650166,-0.0808 z m 6.4034468,0.0166 c -0.472323,-0.0208 -0.563323,-0.0507 -0.706675,-0.23299 -0.151157,-0.19216 -0.164538,-0.32293 -0.164538,-1.60783 0,-0.8674902 0.03465,-1.4747002 0.09124,-1.5989002 0.122538,-0.26894 0.440675,-0.38714 0.961276,-0.35716 l 0.431264,0.0248 v 0.28267 0.28267 l -0.418841,0.0244 -0.418838,0.0244 v 0.47613 0.4761302 l 0.421286,0.0244 0.421286,0.0244 0.0027,0.28267 0.0027,0.28267 -0.424003,0.0244 -0.424002,0.0244 v 0.47613 0.47614 l 0.424002,0.0244 c 0.36764,0.0212 0.427394,0.0483 0.449509,0.2038 0.04614,0.3246 -0.0668,0.38768 -0.6484,0.36214 z m 1.248807,3e-4 -0.26248,-0.0273 v -1.89834 -1.8983502 l 0.787436,0.0389 c 0.937842,0.0464 0.955992,0.0498 0.985494,0.18751 0.01962,0.0916 0.02952,1.2608402 0.01438,1.7027502 -0.0027,0.0777 0.02274,0.52294 0.05647,0.98934 0.03372,0.4664 0.05187,0.86975 0.04034,0.89632 -0.01154,0.0266 -0.158523,0.0259 -0.326639,-0.002 l -0.305669,-0.0498 0.02289,-0.59272 c 0.03082,-0.79765 -0.0086,-0.89854 -0.351392,-0.89854 h -0.277226 v 0.76248 c 0,0.41936 -0.02726,0.77458 -0.06057,0.78936 -0.03331,0.0148 -0.178687,0.0146 -0.323049,-3e-4 z m 0.980698,-2.32535 c 0.02696,-0.0703 0.04902,-0.2883202 0.04902,-0.4845702 v -0.35683 h -0.323049 -0.32305 v 0.48458 0.4845702 h 0.274028 c 0.175375,0 0.291676,-0.046 0.323049,-0.12775 z m 1.077162,2.27167 c -0.01453,-0.0464 -0.02463,-0.90219 -0.0225,-1.90163 l 0.0039,-1.8171602 h 0.282671 0.282669 l 0.02164,1.8687302 0.02164,1.86872 -0.281823,0.0329 c -0.155,0.0181 -0.2937,-0.005 -0.308223,-0.0516 z m -6.182867,-0.15022 c -0.123373,-0.13133 -0.175601,-0.28891 -0.175601,-0.52983 v -0.34291 l 0.302858,0.025 c 0.262938,0.0218 0.30623,0.0543 0.328415,0.24716 0.02305,0.20032 0.05671,0.22209 0.343242,0.22209 h 0.317686 l -0.0027,-0.34323 c -0.0025,-0.33468 -0.01874,-0.35503 -0.646102,-0.81526 l -0.643436,-0.47201 V 9.8345268 c 0,-0.89274 0.254421,-1.13895 1.104118,-1.06849 0.545044,0.0452 0.753419,0.24001 0.753419,0.70437 0,0.37179 -0.01224,0.38389 -0.348354,0.34465 -0.238384,-0.0278 -0.26787,-0.0562 -0.23534,-0.22635 0.03442,-0.18007 0.01246,-0.19455 -0.295279,-0.19455 H 12.78698 v 0.35087 c 0,0.3446602 0.01072,0.3584502 0.605721,0.7798102 l 0.605718,0.42894 v 0.61831 c 0,0.85321 -0.112016,0.97181 -0.917837,0.97181 -0.510725,0 -0.611703,-0.0247 -0.7641,-0.18691 z m 7.299515,0.007 c -0.102889,-0.14689 -0.125721,-0.45331 -0.125721,-1.68707 0,-1.8672302 0.0099,-1.8889002 0.861058,-1.8889002 h 0.552285 l 0.02506,0.30286 0.02506,0.30286 h -0.449069 -0.44907 v 0.48457 0.4845802 h 0.44907 0.449069 l -0.02506,0.30286 -0.02506,0.30287 -0.424002,0.0244 -0.424003,0.0244 v 0.48036 0.48035 h 0.444194 0.444195 v 0.28267 0.28267 h -0.601142 c -0.529645,0 -0.61609,-0.0213 -0.726863,-0.17949 z m 1.815726,0.003 c -0.113655,-0.122 -0.164671,-0.28614 -0.164671,-0.52983 v -0.35308 l 0.302861,0.025 c 0.271402,0.0225 0.302527,0.0482 0.299674,0.24716 -0.003,0.20378 0.02207,0.2221 0.30286,0.2221 h 0.306044 v -0.35365 c 0,-0.34573 -0.01356,-0.36385 -0.605721,-0.80955 l -0.605718,-0.4559 V 9.7644468 c 0,-0.78601 0.120794,-0.94611 0.75342,-0.99857 0.263835,-0.0219 0.556918,0.003 0.692972,0.0597 0.266793,0.11051 0.436298,0.44201 0.397159,0.77673 -0.02329,0.19908 -0.05974,0.22571 -0.309062,0.22571 -0.246586,0 -0.285932,-0.0277 -0.308224,-0.21703 -0.02219,-0.18844 -0.0621,-0.21704 -0.302861,-0.21704 -0.27331,0 -0.277302,0.005 -0.277302,0.35058 0,0.3411902 0.01569,0.3622802 0.585529,0.7874402 l 0.585526,0.43686 0.02344,0.57052 c 0.01972,0.4804 -0.0035,0.60479 -0.147197,0.78744 -0.157638,0.2004 -0.216028,0.2169 -0.767333,0.2169 -0.509847,0 -0.620684,-0.0257 -0.761384,-0.17674 z M 0.91689113,4.8289868 c -0.0021,-4.43128968 -0.02045,-4.26034998 0.48350407,-4.52094968 0.192729,-0.0997 0.681812,-0.12068 2.808325,-0.12068 1.416224,0 2.594984,0.02 2.619467,0.0445 0.04927,0.0493 -0.230804,0.83178968 -0.34879,0.97448968 -0.04772,0.0577 -0.03146,0.12605 0.04512,0.18961 0.06585,0.0547 0.116163,0.21393 0.111808,0.35396 -0.01367,0.43988 -0.0018,0.45649 0.323849,0.45649 0.192285,0 0.41592,0.0714 0.585528,0.1869 0.248091,0.16896 0.271994,0.21906 0.249102,0.52212 -0.01411,0.18655 0.02998,0.4529 0.09933,0.60054 0.337564,0.71847 0.363546,0.88953 0.184434,1.21427 -0.09187,0.16658 -0.19459,0.30286 -0.228264,0.30286 -0.03367,0 -0.290471,-0.14307 -0.570658,-0.31795 -0.602241,-0.37587 -1.227226,-0.47631 -1.386844,-0.22288 -0.07362,0.11688 -0.06383,0.16154 0.0496,0.22611 0.206096,0.11733 0.176184,0.31472 -0.04769,0.31472 -0.137415,0 -0.337124,0.17693 -0.731464,0.64802 -0.298342,0.35642 -0.578313,0.62586 -0.622155,0.59877 -0.04384,-0.0271 -0.170503,0.0102 -0.281469,0.0829 -0.174941,0.11463 -0.300071,0.12122 -0.941542,0.0496 -0.659093,-0.0736 -0.756474,-0.0674 -0.892748,0.0565 -0.08413,0.0765 -0.322097,0.17555 -0.528821,0.22013 -0.297195,0.0641 -0.381244,0.11887 -0.401567,0.2617 -0.01825,0.12831 0.03258,0.20719 0.175503,0.27231 0.163318,0.0744 0.371147,0.45424 0.278136,0.50831 -0.393006,0.2285 -0.6649871,0.4831 -0.8271851,0.77432 l -0.20253897,0.36365 z m 6.05522907,3.73101 -0.282669,-0.0978 0.02586,-0.47484 c 0.04394,-0.80686 0.494536,-1.7428 0.839047,-1.7428 0.0731,0 0.20574,0.0926 0.294765,0.20578 0.231506,0.29431 0.556656,1.42055 0.504902,1.74885 -0.0049,0.0312 -0.179875,0.005 -0.388793,-0.0576 -0.208921,-0.0629 -0.384471,-0.10657 -0.390112,-0.0971 -0.0056,0.01 -0.04422,0.14158 -0.08574,0.29357 -0.08938,0.32723 -0.14457,0.35091 -0.517258,0.22195 z m 5.3072368,-0.26564 c -0.03172,-0.0317 -0.05769,-0.89659 -0.0577,-1.92193 l -3.1e-5,-1.86427 0.62594,0.0146 c 0.344267,0.008 0.688125,0.0171 0.764128,0.0202 0.07601,0.003 0.212291,0.0851 0.30286,0.18233 0.134387,0.14424 0.164671,0.28465 0.164671,0.76344 0,0.32268 -0.04169,0.67818 -0.09264,0.79001 -0.06673,0.14645 -0.06815,0.23281 -0.0051,0.30879 0.04815,0.058 0.09463,0.46795 0.103301,0.91097 l 0.01575,0.80549 h -0.313494 -0.313523 l -0.04038,-0.76724 -0.04038,-0.76725 -0.307698,-0.0254 -0.307696,-0.0254 0.01646,0.7926 0.01645,0.7926 -0.236623,0.024 c -0.130141,0.0132 -0.262574,-0.002 -0.294292,-0.0336 z m 1.153769,-2.70962 v -0.48062 l -0.302861,0.025 -0.30286,0.025 -0.008,0.4442 c -0.0044,0.2443 0.0025,0.46441 0.0153,0.48911 0.01282,0.0247 0.152692,0.0299 0.310858,0.0114 l 0.28757,-0.0336 z m 1.094112,2.69615 c -0.0243,-0.0243 -0.0442,-0.77827 -0.0442,-1.67548 0,-1.52803 0.01059,-1.64475 0.167387,-1.84408 0.15399,-0.19576 0.215402,-0.2128 0.767244,-0.2128 0.944316,0 0.92291,-0.0479 0.92291,2.06433 v 1.74127 l -0.294268,-0.025 -0.294265,-0.025 0.01633,-0.78744 0.01633,-0.78743 H 15.459849 15.13499 l -0.02311,0.78514 -0.02311,0.78514 -0.258658,0.0129 c -0.142265,0.007 -0.278551,-0.007 -0.302861,-0.0313 z m 1.248001,-2.69092 v -0.47609 H 15.45219 15.12914 v 0.50689 0.5069 l 0.32305,-0.0308 0.323049,-0.0308 z m 1.453726,2.70023 c -0.469392,-0.096 -0.484575,-0.1542 -0.484575,-1.85626 0,-1.45467 0.01114,-1.57349 0.161527,-1.72388 0.154587,-0.15459 0.554891,-0.2152 1.130677,-0.17122 0.327151,0.025 0.578066,0.37322 0.549333,0.7624 -0.02347,0.318 -0.03478,0.33029 -0.307046,0.33387 -0.260788,0.003 -0.284628,-0.0166 -0.307976,-0.25876 -0.02384,-0.24739 -0.04358,-0.26247 -0.343241,-0.26247 H 17.30973 v 1.2922 1.2922 h 0.317687 c 0.286526,0 0.320192,-0.0218 0.343238,-0.2221 0.02237,-0.1944 0.06467,-0.2253 0.339221,-0.24781 l 0.313666,-0.0257 -0.03991,0.41537 c -0.02195,0.22844 -0.09374,0.46919 -0.159539,0.53499 -0.125328,0.12533 -0.847768,0.20825 -1.195127,0.13718 z m 1.753685,0.004 c -0.03172,-0.0317 -0.05767,-0.88751 -0.05767,-1.90175 v -1.84408 h 0.324539 0.324539 l -0.02167,1.87773 -0.02167,1.87774 -0.24519,0.024 c -0.134854,0.0132 -0.271143,-0.002 -0.302861,-0.0336 z m 1.02075,-0.073 c -0.01743,-0.0454 -0.02188,-0.89949 -0.0099,-1.89792 0.01877,-1.56454 0.03852,-1.81156 0.142928,-1.78806 0.06663,0.015 0.419656,0.0242 0.784502,0.0205 1.015665,-0.0105 0.992277,-0.059 0.992277,2.05911 v 1.7129 l -0.289189,-0.0193 -0.289185,-0.0193 0.0096,-1.58767 0.0096,-1.58767 h -0.364758 -0.364758 l -0.02188,1.59506 -0.02188,1.59506 h -0.27276 c -0.150019,0 -0.287024,-0.0372 -0.304454,-0.0826 z m 2.798185,0.0642 c -0.467473,-0.085 -0.484576,-0.15 -0.484576,-1.8427 0,-1.8894 -2.8e-5,-1.88933 0.814224,-1.90461 0.292354,-0.005 0.605373,0.0295 0.695597,0.0778 0.198876,0.10644 0.370808,0.49367 0.334151,0.75259 -0.02188,0.15463 -0.08239,0.19398 -0.329673,0.21445 -0.289457,0.024 -0.30286,0.0142 -0.30286,-0.22209 0,-0.23452 -0.01651,-0.24717 -0.32305,-0.24717 h -0.323049 v 1.2922 1.2922 h 0.323049 0.32305 v -0.48457 c 0,-0.38523 -0.02582,-0.48458 -0.126018,-0.48458 -0.09624,0 -0.120095,-0.0716 -0.100953,-0.30286 l 0.02506,-0.30286 h 0.403814 0.403814 l 0.02522,0.72686 c 0.02784,0.80316 -0.07392,1.28692 -0.288425,1.37096 -0.18554,0.0727 -0.815039,0.11059 -1.069366,0.0644 z M 5.0107412,7.8098168 c -0.135407,-0.13541 -0.04364,-0.48175 0.192069,-0.72495 0.202356,-0.20878 0.234144,-0.28685 0.1675,-0.41137 -0.06465,-0.1208 -0.03115,-0.2358 0.156526,-0.53732 0.131325,-0.211 0.213879,-0.42392 0.183452,-0.47316 -0.03125,-0.0506 -0.01884,-0.067 0.02854,-0.0377 0.04613,0.0285 0.128838,-0.0567 0.1838,-0.18942 0.120242,-0.2903 0.162152,-0.29614 0.389312,-0.0543 0.227434,0.2421 0.22332,0.28861 -0.07834,0.88549 -0.139668,0.27635 -0.336437,0.7387 -0.437266,1.02742 -0.172853,0.49498 -0.19887,0.52633 -0.455617,0.54899 -0.149758,0.0132 -0.298251,-0.002 -0.329978,-0.0336 z m 7.2109458,-5.64377 V 0.26813712 h 0.730532 c 0.667949,0 0.74752,0.017 0.928771,0.1982297 0.179047,0.17905 0.198235,0.26399 0.198235,0.87748998 0,0.90531 -0.127681,1.08646 -0.79019,1.12111 l -0.46163,0.0241 -0.01575,0.6461 c -0.0087,0.35536 -0.01773,0.7097 -0.02017,0.78744 -0.0034,0.10683 -0.07345,0.14133 -0.287119,0.14133 h -0.282669 z m 1.211439,-0.81421 V 0.82029682 l -0.302861,0.0439 c -0.166572,0.0241 -0.314194,0.0453 -0.328049,0.047 -0.01386,0.002 -0.01438,0.22110998 -0.0012,0.48761998 l 0.02403,0.48458 h 0.304036 0.304032 z m 1.086624,2.5139 c -0.196467,-0.19646 -0.198237,-0.21184 -0.198237,-1.72232 0,-1.48867998 0.0043,-1.52815998 0.186922,-1.69967998 0.256195,-0.2406797 1.152017,-0.2539897 1.439572,-0.0214 0.186557,0.15091 0.191206,0.18743 0.215738,1.69479998 l 0.02506,1.54058 -0.203119,0.20312 c -0.175891,0.17589 -0.274467,0.20311 -0.735417,0.20311 -0.457472,0 -0.560163,-0.0279 -0.730532,-0.19823 z m 1.013201,-1.70702 V 0.82371682 l -0.302857,0.025 -0.302861,0.025 -0.02243,1.20789998 c -0.01233,0.66433 -0.0067,1.24889 0.01252,1.29901 0.01923,0.0501 0.165619,0.096 0.325302,0.10204 l 0.290336,0.011 z m 1.230221,1.72334 c -0.161148,-0.17153 -0.172323,-0.27987 -0.195796,-1.89801 l -0.02488,-1.71608968 0.302861,9e-5 0.30286,9e-5 V 1.8430068 c 0,1.34065 0.01801,1.57667 0.121143,1.58698 0.06663,0.007 0.221088,0.0157 0.343241,0.0202 l 0.222099,0.008 0.02192,-1.59984 0.02192,-1.59982968 0.301136,0.025 0.301135,0.025 0.0092,1.46770968 c 0.005,0.80724 0.03195,1.52708 0.05979,1.59964 0.03623,0.0944 0.125459,0.12339 0.31388,0.10191 l 0.263258,-0.03 0.02188,-1.58982 0.02188,-1.58981968 h 0.321343 0.321343 V 1.9678168 c 0,1.69692 -3.06e-4,1.70001 -0.198235,1.89792 -0.165083,0.16508 -0.276891,0.19824 -0.668513,0.19824 -0.272397,0 -0.538204,-0.0476 -0.631713,-0.11308 -0.138379,-0.0969 -0.183521,-0.0969 -0.316074,0 -0.08924,0.0652 -0.347109,0.11308 -0.609702,0.11308 -0.367639,0 -0.487893,-0.035 -0.625961,-0.18192 z m 3.646126,-0.008 -0.220704,-0.18985 0.0094,-1.48598 c 0.0052,-0.81729 0.01157,-1.51181998 0.01429,-1.54340998 0.0027,-0.0316 0.08447,-0.13153 0.181684,-0.22209 0.142012,-0.1323097 0.284885,-0.1646697 0.726863,-0.1646697 h 0.550112 v 0.2826697 0.28266 h -0.444195 -0.444194 v 0.52495998 0.52496 h 0.444194 0.444195 v 0.28267 0.28267 h -0.444195 -0.444194 v 0.53094 0.53094 l 0.424002,-0.0229 0.424003,-0.0229 0.02506,0.29961 0.02506,0.29962 h -0.52536 c -0.435013,0 -0.563274,-0.0326 -0.746033,-0.18984 z m 1.638504,0.136 c -0.02961,-0.0296 -0.05384,-0.88368 -0.05384,-1.89792 V 0.26805712 h 0.767243 c 0.648596,0 0.791197,0.024 0.922129,0.1548797 0.221137,0.22113 0.307515,1.00060998 0.15736,1.41997998 -0.09546,0.26662 -0.09753,0.35833 -0.01184,0.52496 0.066,0.12836 0.09898,0.47403 0.09054,0.94897 l -0.01328,0.74705 h -0.30997 -0.309969 v -0.71071 c 0,-0.77756 -0.05896,-0.90454 -0.419965,-0.90454 h -0.226134 v 0.80762 0.80763 h -0.26921 c -0.148065,0 -0.293438,-0.0242 -0.32305,-0.0538 z m 1.238358,-2.65658 V 0.82364682 l -0.30286,0.025 -0.302858,0.025 -0.02405,0.50476998 -0.02405,0.50476 h 0.326901 0.326905 z"
       id="path1" /></g></svg>
